<svg width="149" height="22" viewBox="0 0 149 22" fill="none" xmlns="http://www.w3.org/2000/svg">
<path d="M11.2946 18.0717L15.2887 21.1195C15.6603 21.4041 16.1094 21.5589 16.5713 21.5616C17.0331 21.5644 17.4839 21.415 17.8587 21.1349C18.2335 20.8549 18.5131 20.4586 18.657 20.0032C18.801 19.5478 18.8019 19.0567 18.6598 18.6006L17.1172 13.6441L21.1787 10.5655C21.5523 10.2844 21.8304 9.88763 21.9731 9.43221C22.1157 8.97679 22.1156 8.48616 21.9726 8.03084C21.8297 7.57552 21.5513 7.17897 21.1775 6.89817C20.8037 6.61737 20.3537 6.4668 19.8923 6.46809H14.8922L13.3739 1.5535C13.228 1.10101 12.9488 0.707552 12.5756 0.428774C12.2025 0.149995 11.7543 0 11.2946 0C10.8348 0 10.3867 0.149995 10.0135 0.428774C9.64038 0.707552 9.36113 1.10101 9.21526 1.5535L7.69691 6.46809H2.69956C2.23859 6.46702 1.78914 6.6175 1.41569 6.89794C1.04223 7.17838 0.763959 7.57436 0.620795 8.02908C0.477632 8.48381 0.476934 8.9739 0.618797 9.42907C0.76066 9.88423 1.03779 10.2811 1.41045 10.5627L5.47197 13.6413L3.92935 18.5978C3.77838 19.0542 3.77577 19.5492 3.92191 20.0072C4.06804 20.4652 4.35487 20.8609 4.73842 21.1335C5.11161 21.4175 5.56292 21.5695 6.02572 21.567C6.48851 21.5645 6.93826 21.4076 7.30856 21.1195L11.2946 18.0717Z" fill="#F8D748"/>
<path d="M42.8616 18.0717L46.8557 21.1195C47.2274 21.4041 47.6765 21.5589 48.1383 21.5616C48.6002 21.5644 49.051 21.415 49.4258 21.1349C49.8006 20.8549 50.0801 20.4586 50.2241 20.0032C50.368 19.5478 50.369 19.0567 50.2268 18.6006L48.6842 13.6441L52.7457 10.5655C53.1194 10.2844 53.3975 9.88763 53.5401 9.43221C53.6828 8.97679 53.6826 8.48616 53.5397 8.03084C53.3967 7.57552 53.1183 7.17897 52.7445 6.89817C52.3707 6.61737 51.9208 6.4668 51.4593 6.46809H46.4593L44.9409 1.5535C44.7951 1.10101 44.5158 0.707552 44.1427 0.428774C43.7695 0.149995 43.3214 0 42.8616 0C42.4018 0 41.9537 0.149995 41.5806 0.428774C41.2074 0.707552 40.9282 1.10101 40.7823 1.5535L39.264 6.46809H34.2666C33.8056 6.46702 33.3562 6.6175 32.9827 6.89794C32.6093 7.17838 32.331 7.57436 32.1878 8.02908C32.0447 8.48381 32.044 8.9739 32.1858 9.42907C32.3277 9.88423 32.6048 10.2811 32.9775 10.5627L37.039 13.6413L35.4964 18.5978C35.3454 19.0542 35.3428 19.5492 35.489 20.0072C35.6351 20.4652 35.9219 20.8609 36.3055 21.1335C36.6787 21.4175 37.13 21.5695 37.5928 21.567C38.0556 21.5645 38.5053 21.4076 38.8756 21.1195L42.8616 18.0717Z" fill="#F8D748"/>
<path d="M74.4287 18.0717L78.4228 21.1195C78.7944 21.4041 79.2435 21.5589 79.7054 21.5616C80.1672 21.5644 80.618 21.415 80.9928 21.1349C81.3676 20.8549 81.6471 20.4586 81.7911 20.0032C81.9351 19.5478 81.936 19.0567 81.7939 18.6006L80.2513 13.6441L84.3128 10.5655C84.6864 10.2844 84.9645 9.88763 85.1072 9.43221C85.2498 8.97679 85.2497 8.48616 85.1067 8.03084C84.9638 7.57552 84.6854 7.17897 84.3116 6.89817C83.9378 6.61737 83.4878 6.4668 83.0264 6.46809H78.0263L76.508 1.5535C76.3621 1.10101 76.0829 0.707552 75.7097 0.428774C75.3366 0.149995 74.8884 0 74.4287 0C73.9689 0 73.5207 0.149995 73.1476 0.428774C72.7745 0.707552 72.4952 1.10101 72.3494 1.5535L70.831 6.46809H65.8337C65.3727 6.46702 64.9232 6.6175 64.5498 6.89794C64.1763 7.17838 63.8981 7.57436 63.7549 8.02908C63.6117 8.48381 63.611 8.9739 63.7529 9.42907C63.8948 9.88423 64.1719 10.2811 64.5445 10.5627L68.6061 13.6413L67.0634 18.5978C66.9125 19.0542 66.9099 19.5492 67.056 20.0072C67.2021 20.4652 67.489 20.8609 67.8725 21.1335C68.2457 21.4175 68.697 21.5695 69.1598 21.567C69.6226 21.5645 70.0724 21.4076 70.4427 21.1195L74.4287 18.0717Z" fill="#F8D748"/>
<path d="M105.996 18.0717L109.99 21.1195C110.361 21.4041 110.811 21.5589 111.272 21.5616C111.734 21.5644 112.185 21.415 112.56 21.1349C112.935 20.8549 113.214 20.4586 113.358 20.0032C113.502 19.5478 113.503 19.0567 113.361 18.6006L111.818 13.6441L115.88 10.5655C116.253 10.2844 116.532 9.88763 116.674 9.43221C116.817 8.97679 116.817 8.48616 116.674 8.03084C116.531 7.57552 116.252 7.17897 115.879 6.89817C115.505 6.61737 115.055 6.4668 114.593 6.46809H109.593L108.075 1.5535C107.929 1.10101 107.65 0.707552 107.277 0.428774C106.904 0.149995 106.455 0 105.996 0C105.536 0 105.088 0.149995 104.715 0.428774C104.342 0.707552 104.062 1.10101 103.916 1.5535L102.398 6.46809H97.4007C96.9397 6.46702 96.4903 6.6175 96.1168 6.89794C95.7434 7.17838 95.4651 7.57436 95.3219 8.02908C95.1788 8.48381 95.1781 8.9739 95.3199 9.42907C95.4618 9.88423 95.7389 10.2811 96.1116 10.5627L100.173 13.6413L98.6305 18.5978C98.4795 19.0542 98.4769 19.5492 98.623 20.0072C98.7692 20.4652 99.056 20.8609 99.4396 21.1335C99.8127 21.4175 100.264 21.5695 100.727 21.567C101.19 21.5645 101.639 21.4076 102.01 21.1195L105.996 18.0717Z" fill="#F8D748"/>
<path d="M137.563 18.0717L141.557 21.1195C141.929 21.4041 142.378 21.5589 142.839 21.5616C143.301 21.5644 143.752 21.415 144.127 21.1349C144.502 20.8549 144.781 20.4586 144.925 20.0032C145.069 19.5478 145.07 19.0567 144.928 18.6006L143.385 13.6441L147.447 10.5655C147.82 10.2844 148.099 9.88763 148.241 9.43221C148.384 8.97679 148.384 8.48616 148.241 8.03084C148.098 7.57552 147.819 7.17897 147.446 6.89817C147.072 6.61737 146.622 6.4668 146.16 6.46809H141.16L139.642 1.5535C139.496 1.10101 139.217 0.707552 138.844 0.428774C138.471 0.149995 138.023 0 137.563 0C137.103 0 136.655 0.149995 136.282 0.428774C135.909 0.707552 135.629 1.10101 135.483 1.5535L133.965 6.46809H128.968C128.507 6.46702 128.057 6.6175 127.684 6.89794C127.31 7.17838 127.032 7.57436 126.889 8.02908C126.746 8.48381 126.745 8.9739 126.887 9.42907C127.029 9.88423 127.306 10.2811 127.679 10.5627L131.74 13.6413L130.198 18.5978C130.047 19.0542 130.044 19.5492 130.19 20.0072C130.336 20.4652 130.623 20.8609 131.007 21.1335C131.38 21.4175 131.831 21.5695 132.294 21.567C132.757 21.5645 133.206 21.4076 133.577 21.1195L137.563 18.0717Z" fill="#F8D748"/>
</svg>
