<svg width="148" height="22" viewBox="0 0 148 22" fill="none" xmlns="http://www.w3.org/2000/svg">
<path d="M10.7817 18.1474L14.7758 21.1952C15.1474 21.4797 15.5965 21.6345 16.0584 21.6373C16.5202 21.6401 16.971 21.4907 17.3458 21.2106C17.7206 20.9306 18.0001 20.5343 18.1441 20.0789C18.2881 19.6234 18.289 19.1324 18.1469 18.6763L16.6043 13.7198L20.6658 10.6411C21.0394 10.3601 21.3175 9.96332 21.4602 9.5079C21.6028 9.05248 21.6027 8.56184 21.4597 8.10653C21.3168 7.65121 21.0384 7.25465 20.6646 6.97385C20.2908 6.69306 19.8408 6.54248 19.3794 6.54377H14.3793L12.861 1.62918C12.7151 1.17669 12.4359 0.783236 12.0627 0.504457C11.6896 0.225679 11.2414 0.0756836 10.7817 0.0756836C10.3219 0.0756836 9.87374 0.225679 9.5006 0.504457C9.12747 0.783236 8.84822 1.17669 8.70235 1.62918L7.184 6.54377H2.18665C1.72568 6.54271 1.27623 6.69319 0.902776 6.97362C0.52932 7.25406 0.25105 7.65004 0.107887 8.10477C-0.0352771 8.55949 -0.0359748 9.04959 0.105888 9.50475C0.247751 9.95991 0.524885 10.3568 0.897537 10.6383L4.95906 13.717L3.41644 18.6735C3.26547 19.1298 3.26286 19.6249 3.409 20.0829C3.55513 20.5409 3.84196 20.9366 4.22551 21.2092C4.5987 21.4932 5.05001 21.6452 5.51281 21.6427C5.9756 21.6402 6.42535 21.4833 6.79565 21.1952L10.7817 18.1474Z" fill="#F8A401"/>
<path d="M42.3487 18.1474L46.3428 21.1952C46.7145 21.4797 47.1636 21.6345 47.6254 21.6373C48.0873 21.6401 48.5381 21.4907 48.9129 21.2106C49.2877 20.9306 49.5672 20.5343 49.7111 20.0789C49.8551 19.6234 49.8561 19.1324 49.7139 18.6763L48.1713 13.7198L52.2328 10.6411C52.6064 10.3601 52.8846 9.96332 53.0272 9.5079C53.1699 9.05248 53.1697 8.56184 53.0268 8.10653C52.8838 7.65121 52.6054 7.25465 52.2316 6.97385C51.8578 6.69306 51.4079 6.54248 50.9464 6.54377H45.9464L44.428 1.62918C44.2821 1.17669 44.0029 0.783236 43.6298 0.504457C43.2566 0.225679 42.8085 0.0756836 42.3487 0.0756836C41.8889 0.0756836 41.4408 0.225679 41.0677 0.504457C40.6945 0.783236 40.4153 1.17669 40.2694 1.62918L38.7511 6.54377H33.7537C33.2927 6.54271 32.8433 6.69319 32.4698 6.97362C32.0964 7.25406 31.8181 7.65004 31.6749 8.10477C31.5318 8.55949 31.5311 9.04959 31.6729 9.50475C31.8148 9.95991 32.0919 10.3568 32.4646 10.6383L36.5261 13.717L34.9835 18.6735C34.8325 19.1298 34.8299 19.6249 34.976 20.0829C35.1222 20.5409 35.409 20.9366 35.7926 21.2092C36.1657 21.4932 36.6171 21.6452 37.0799 21.6427C37.5426 21.6402 37.9924 21.4833 38.3627 21.1952L42.3487 18.1474Z" fill="#F8A401"/>
<path d="M73.9158 18.1474L77.9099 21.1952C78.2815 21.4797 78.7306 21.6345 79.1925 21.6373C79.6543 21.6401 80.1051 21.4907 80.4799 21.2106C80.8547 20.9306 81.1342 20.5343 81.2782 20.0789C81.4221 19.6234 81.4231 19.1324 81.281 18.6763L79.7384 13.7198L83.7999 10.6411C84.1735 10.3601 84.4516 9.96332 84.5943 9.50789C84.7369 9.05247 84.7368 8.56184 84.5938 8.10653C84.4508 7.65121 84.1725 7.25465 83.7987 6.97385C83.4249 6.69306 82.9749 6.54248 82.5135 6.54377H77.5134L75.9951 1.62918C75.8492 1.17669 75.5699 0.783236 75.1968 0.504457C74.8237 0.225679 74.3755 0.0756836 73.9158 0.0756836C73.456 0.0756836 73.0078 0.225679 72.6347 0.504457C72.2616 0.783236 71.9823 1.17669 71.8364 1.62918L70.3181 6.54377H65.3207C64.8598 6.54271 64.4103 6.69319 64.0369 6.97362C63.6634 7.25406 63.3851 7.65004 63.242 8.10476C63.0988 8.55949 63.0981 9.04959 63.24 9.50475C63.3818 9.95991 63.659 10.3568 64.0316 10.6383L68.0932 13.717L66.5505 18.6735C66.3996 19.1298 66.397 19.6249 66.5431 20.0829C66.6892 20.5409 66.9761 20.9366 67.3596 21.2092C67.7328 21.4932 68.1841 21.6452 68.6469 21.6427C69.1097 21.6402 69.5594 21.4833 69.9297 21.1952L73.9158 18.1474Z" fill="#F8A401"/>
<path d="M105.483 18.1474L109.477 21.1952C109.849 21.4797 110.298 21.6345 110.759 21.6373C111.221 21.6401 111.672 21.4907 112.047 21.2106C112.422 20.9306 112.701 20.5343 112.845 20.0789C112.989 19.6234 112.99 19.1324 112.848 18.6763L111.305 13.7198L115.367 10.6411C115.741 10.3601 116.019 9.96332 116.161 9.5079C116.304 9.05248 116.304 8.56184 116.161 8.10653C116.018 7.65121 115.739 7.25465 115.366 6.97385C114.992 6.69306 114.542 6.54248 114.08 6.54377H109.08L107.562 1.62918C107.416 1.17669 107.137 0.783236 106.764 0.504457C106.391 0.225679 105.943 0.0756836 105.483 0.0756836C105.023 0.0756836 104.575 0.225679 104.202 0.504457C103.829 0.783236 103.549 1.17669 103.403 1.62918L101.885 6.54377H96.8878C96.4268 6.54271 95.9774 6.69319 95.6039 6.97362C95.2304 7.25406 94.9522 7.65004 94.809 8.10477C94.6658 8.55949 94.6652 9.04959 94.807 9.50475C94.9489 9.95991 95.226 10.3568 95.5987 10.6383L99.6602 13.717L98.1176 18.6735C97.9666 19.1298 97.964 19.6249 98.1101 20.0829C98.2563 20.5409 98.5431 20.9366 98.9266 21.2092C99.2998 21.4932 99.7511 21.6452 100.214 21.6427C100.677 21.6402 101.126 21.4833 101.497 21.1952L105.483 18.1474Z" fill="#F8A401"/>
<path d="M137.05 18.1474L141.044 21.1952C141.416 21.4797 141.865 21.6345 142.327 21.6373C142.788 21.6401 143.239 21.4907 143.614 21.2106C143.989 20.9306 144.268 20.5343 144.412 20.0789C144.556 19.6234 144.557 19.1324 144.415 18.6763L142.872 13.7198L146.934 10.6411C147.308 10.3601 147.586 9.96332 147.728 9.5079C147.871 9.05248 147.871 8.56184 147.728 8.10653C147.585 7.65121 147.307 7.25465 146.933 6.97385C146.559 6.69306 146.109 6.54248 145.648 6.54377H140.647L139.129 1.62918C138.983 1.17669 138.704 0.783236 138.331 0.504457C137.958 0.225679 137.51 0.0756836 137.05 0.0756836C136.59 0.0756836 136.142 0.225679 135.769 0.504457C135.396 0.783236 135.116 1.17669 134.971 1.62918L133.452 6.54377H128.455C127.994 6.54271 127.544 6.69319 127.171 6.97362C126.797 7.25406 126.519 7.65004 126.376 8.10477C126.233 8.55949 126.232 9.04959 126.374 9.50475C126.516 9.95991 126.793 10.3568 127.166 10.6383L131.227 13.717L129.685 18.6735C129.534 19.1298 129.531 19.6249 129.677 20.0829C129.823 20.5409 130.11 20.9366 130.494 21.2092C130.867 21.4932 131.318 21.6452 131.781 21.6427C132.244 21.6402 132.694 21.4833 133.064 21.1952L137.05 18.1474Z" fill="#F8A401"/>
</svg>
