<svg width="32" height="20" viewBox="0 0 32 20" fill="none" xmlns="http://www.w3.org/2000/svg">
<g id="Item &#226;&#134;&#146; Img">
<path id="Vector" opacity="0.07" d="M28.5305 0.220703H3.19993C1.85425 0.220703 0.825195 1.24969 0.825195 2.59529V16.8428C0.825195 18.1884 1.93341 19.2174 3.19993 19.2174H28.5305C29.8761 19.2174 30.9052 18.1884 30.9052 16.8428V2.59529C30.9052 1.24969 29.797 0.220703 28.5305 0.220703Z" fill="black"/>
<path id="Vector_2" d="M28.5304 1.01172C29.4011 1.01172 30.1135 1.72409 30.1135 2.59478V16.8423C30.1135 17.713 29.4011 18.4254 28.5304 18.4254H3.19986C2.32912 18.4254 1.6167 17.713 1.6167 16.8423V2.59478C1.6167 1.72409 2.32912 1.01172 3.19986 1.01172H28.5304Z" fill="#006FCF"/>
<path id="Vector_3" d="M18.2495 16.0004V9.33496L30.1129 9.34525V11.1863L28.742 12.6523L30.1129 14.13V16.0099H27.9236L26.76 14.7261L25.6044 16.0147L18.2495 15.9988V16.0004Z" fill="white"/>
<path id="Vector_4" d="M19.0417 15.2687V10.0684H23.4521V11.2659H20.4697V12.0796H23.3809V13.2574H20.4697V14.0569H23.4521V15.2687H19.0417Z" fill="#006FCF"/>
<path id="Vector_5" d="M23.4304 15.2685L25.8707 12.6652L23.4304 10.0674H25.319L26.8102 11.7161L28.3062 10.0682H30.1133V10.1085L27.7253 12.6652L30.1133 15.1957V15.2693H28.2872L26.7699 13.6047L25.2676 15.2701H23.4304V15.2685Z" fill="#006FCF"/>
<path id="Vector_6" d="M18.8018 3.41797H21.6624L22.6668 5.69836V3.41797H26.1971L26.8065 5.12688L27.4168 3.41797H30.1128V10.0834H15.8652L18.8018 3.41797Z" fill="white"/>
<path id="Vector_7" d="M19.344 4.14258L17.0359 9.33976H18.6189L19.0543 8.2989H21.413L21.8484 9.33976H23.471L21.1724 4.14258H19.344ZM19.5419 7.13218L20.2345 5.47789L20.9255 7.13218H19.5419Z" fill="#006FCF"/>
<path id="Vector_8" d="M23.4495 9.3386V4.14062L25.6745 4.14854L26.8206 7.34394L27.9731 4.14142H30.1133V9.3378L28.7361 9.35047V5.78067L27.4348 9.3378H26.1763L24.8497 5.7688V9.3386H23.4503H23.4495Z" fill="#006FCF"/>
</g>
</svg>
