<svg width="32" height="20" viewBox="0 0 32 20" fill="none" xmlns="http://www.w3.org/2000/svg">
<g id="Item &#226;&#134;&#146; Img">
<path id="Vector" d="M28.0424 0.21875H3.6779C3.5764 0.21875 3.47473 0.21875 3.37342 0.219288C3.28788 0.220005 3.20253 0.220902 3.117 0.223233C2.93069 0.228253 2.74276 0.23937 2.55879 0.272362C2.37428 0.303972 2.19551 0.362892 2.02837 0.447184C1.69236 0.618075 1.41925 0.891171 1.24835 1.22716C1.1639 1.39435 1.10497 1.57325 1.07351 1.7579C1.04016 1.94205 1.02922 2.12978 1.0242 2.3159C1.02202 2.40135 1.0207 2.48682 1.02026 2.5723C1.0199 2.67343 1.0199 2.77491 1.0199 2.87658V16.5607C1.0199 16.6624 1.0199 16.7637 1.02026 16.8654C1.02079 16.9507 1.02187 17.0363 1.0242 17.1218C1.02922 17.3075 1.04034 17.4955 1.07351 17.6794C1.1049 17.8641 1.16377 18.043 1.24817 18.2102C1.33302 18.3771 1.44377 18.5297 1.57631 18.662C1.70863 18.7946 1.86115 18.9054 2.02819 18.9901C2.198 19.0767 2.37194 19.1318 2.55897 19.1653C2.74276 19.1981 2.93069 19.2092 3.117 19.2143C3.20253 19.2162 3.28788 19.2173 3.37342 19.2179C3.47473 19.2186 3.5764 19.2186 3.6779 19.2186H28.0424C28.1437 19.2186 28.2454 19.2186 28.3467 19.2179C28.4321 19.2175 28.5174 19.2162 28.6033 19.2143C28.7893 19.2092 28.9772 19.1981 29.1615 19.1653C29.3461 19.1337 29.5249 19.0746 29.692 18.9901C30.0278 18.819 30.3008 18.546 30.472 18.2102C30.5586 18.0404 30.6135 17.8664 30.6466 17.6794C30.68 17.4955 30.6907 17.3075 30.6958 17.1218C30.6981 17.0363 30.6994 16.9507 30.6997 16.8654C30.7004 16.7637 30.7004 16.6624 30.7004 16.5607V2.87676C30.7004 2.77509 30.7004 2.67361 30.6997 2.57212C30.6994 2.4867 30.698 2.40129 30.6958 2.3159C30.6907 2.12978 30.68 1.94205 30.6466 1.7579C30.6154 1.57322 30.5565 1.3943 30.472 1.22716C30.301 0.89123 30.0279 0.618156 29.692 0.447184C29.5248 0.362979 29.346 0.30412 29.1615 0.272541C28.9772 0.23937 28.7893 0.228432 28.6033 0.223412C28.5178 0.22124 28.4323 0.219925 28.3467 0.219467C28.2454 0.21875 28.1437 0.21875 28.0424 0.21875Z" fill="black"/>
<path id="Vector_2" d="M28.0424 0.852539L28.3422 0.853077C28.4233 0.853615 28.5045 0.854511 28.5861 0.856663C28.7283 0.860608 28.8943 0.868318 29.0492 0.89611C29.1837 0.920316 29.2967 0.957074 29.405 1.0123C29.6218 1.12249 29.7978 1.29876 29.9078 1.51561C29.9627 1.62319 29.9993 1.73543 30.0235 1.87117C30.0511 2.02429 30.0588 2.19087 30.0626 2.33377C30.0649 2.41446 30.066 2.49515 30.0661 2.57763C30.067 2.6775 30.067 2.77719 30.067 2.87725V16.5614C30.067 16.6615 30.067 16.7611 30.0663 16.863C30.066 16.9437 30.0649 17.0244 30.0627 17.1051C30.0588 17.2478 30.0511 17.4144 30.0231 17.5693C30.0028 17.6925 29.9638 17.8119 29.9075 17.9234C29.7972 18.1403 29.6209 18.3166 29.4039 18.4267C29.2963 18.4816 29.1837 18.5183 29.0505 18.5424C28.8925 18.5705 28.7193 18.5782 28.5889 18.5818C28.507 18.5836 28.4254 18.5849 28.3417 18.5852C28.2421 18.5859 28.1421 18.5859 28.0424 18.5859H3.67391C3.57528 18.5859 3.47666 18.5859 3.37624 18.5852C3.29554 18.5849 3.21485 18.5838 3.13417 18.582C3.00076 18.5784 2.82754 18.5705 2.67082 18.5425C2.5469 18.5219 2.42684 18.4826 2.31469 18.426C2.20713 18.3714 2.10895 18.2999 2.02384 18.2144C1.93847 18.1292 1.86717 18.031 1.81261 17.9234C1.75626 17.8113 1.7172 17.6913 1.69677 17.5675C1.6688 17.4127 1.66091 17.2469 1.65732 17.1052C1.6553 17.0243 1.6541 16.9433 1.65374 16.8623L1.6532 16.6243V2.81449L1.65356 2.57691C1.65393 2.49579 1.65512 2.41469 1.65714 2.33359C1.66109 2.19158 1.6688 2.02573 1.69695 1.86973C1.71742 1.74617 1.75648 1.62641 1.81279 1.51453C1.8673 1.40731 1.93831 1.30941 2.02438 1.22352C2.10969 1.13808 2.20797 1.06667 2.31559 1.01194C2.42746 0.955743 2.54715 0.916695 2.67064 0.89611C2.82574 0.868318 2.99197 0.860608 3.13435 0.856663C3.2154 0.854511 3.29663 0.853615 3.37714 0.853077L3.67785 0.852539H28.0424Z" fill="white"/>
<g id="Group">
<g id="Group_2">
<path id="Vector_3" d="M8.82132 6.63293C9.07306 6.31825 9.24376 5.89563 9.19875 5.46387C8.83046 5.48216 8.38112 5.70682 8.12077 6.02186C7.88714 6.29154 7.6804 6.73173 7.73419 7.14538C8.14767 7.18125 8.56079 6.93883 8.82132 6.63293Z" fill="black"/>
<path id="Vector_4" d="M9.19407 7.22604C8.5934 7.19018 8.0831 7.56672 7.79639 7.56672C7.50951 7.56672 7.07039 7.24397 6.59541 7.25276C5.97735 7.26172 5.40393 7.61137 5.09015 8.16721C4.44501 9.2789 4.91981 10.9285 5.54738 11.834C5.85202 12.2822 6.21923 12.7753 6.70299 12.7576C7.16022 12.7397 7.33935 12.4617 7.89483 12.4617C8.45014 12.4617 8.61151 12.7576 9.09545 12.7486C9.59715 12.7397 9.91093 12.3004 10.2156 11.8521C10.5652 11.3411 10.7081 10.848 10.7171 10.8211C10.7081 10.8121 9.74956 10.4444 9.74059 9.34165C9.73163 8.41824 10.4933 7.97894 10.5292 7.95187C10.099 7.31569 9.42699 7.24397 9.19389 7.22604" fill="black"/>
</g>
<g id="Group_3">
<path id="Vector_5" d="M15.1808 5.97656C16.4858 5.97656 17.3947 6.87613 17.3947 8.18577C17.3947 9.50007 16.4671 10.4043 15.1482 10.4043H13.7033V12.7023H12.6594V5.97656H15.1808ZM13.7033 9.52805H14.9011C15.8102 9.52805 16.3273 9.03872 16.3273 8.19043C16.3273 7.34232 15.81 6.85749 14.9058 6.85749H13.7033V9.52805Z" fill="black"/>
<path id="Vector_6" d="M17.6539 11.3085C17.6539 10.4463 18.3111 9.95228 19.5228 9.87769L20.8231 9.79844V9.42548C20.8231 8.8804 20.4643 8.58204 19.8258 8.58204C19.299 8.58204 18.9168 8.85225 18.8379 9.26698H17.8962C17.9243 8.39556 18.7445 7.76172 19.8538 7.76172C21.0469 7.76172 21.8253 8.38624 21.8253 9.35574V12.7021H20.8606V11.8958H20.8373C20.5622 12.4224 19.9562 12.7532 19.299 12.7532C18.3297 12.7532 17.6539 12.1755 17.6539 11.3085ZM20.8231 10.8752V10.4975L19.6627 10.5721C19.01 10.6141 18.67 10.8563 18.67 11.2804C18.67 11.6906 19.0242 11.9564 19.5788 11.9564C20.287 11.9564 20.8231 11.5042 20.8231 10.8752Z" fill="black"/>
<path id="Vector_7" d="M22.7125 14.501V13.6948C22.7778 13.704 22.9361 13.7133 23.02 13.7133C23.4814 13.7133 23.7424 13.5179 23.9009 13.0142L23.9942 12.716L22.2277 7.82227H23.3182L24.5488 11.7931H24.5721L25.8025 7.82227H26.8652L25.0334 12.9629C24.6138 14.1422 24.1338 14.5291 23.1179 14.5291C23.0387 14.5291 22.7822 14.5198 22.7125 14.501Z" fill="black"/>
</g>
</g>
</g>
</svg>
