<svg width="40" height="42" viewBox="0 0 40 42" fill="none" xmlns="http://www.w3.org/2000/svg">
<path d="M13.619 22.095C13.3807 21.7 13.5107 21.1883 13.9057 20.9517L20.1673 17.195V8.5C20.1673 8.04 20.5407 7.66667 21.0007 7.66667C21.4607 7.66667 21.834 8.04 21.834 8.5V17.6667C21.834 17.96 21.6807 18.23 21.429 18.3817L14.7623 22.3817C14.629 22.4617 14.4807 22.5 14.334 22.5C14.0523 22.5 13.7757 22.3567 13.619 22.095ZM37.6673 18.5V33.5C37.6673 37.635 34.3023 41 30.1673 41H11.834C7.69898 41 4.33398 37.635 4.33398 33.5V18.5C4.33398 18.4117 4.34732 16.6133 4.37398 16.5333C4.95732 7.87 12.1923 1 21.0007 1C29.809 1 37.044 7.87 37.6273 16.5333C37.6523 16.6133 37.6673 18.4117 37.6673 18.5ZM6.00065 17.6667C6.00065 25.9367 12.729 32.6667 21.0007 32.6667C29.2723 32.6667 36.0007 25.9367 36.0007 17.6667C36.0007 9.39667 29.2723 2.66667 21.0007 2.66667C12.729 2.66667 6.00065 9.39667 6.00065 17.6667ZM36.0007 24.9267C33.2973 30.49 27.589 34.3333 21.0007 34.3333C14.4123 34.3333 8.70398 30.49 6.00065 24.9267V33.5C6.00065 36.7167 8.61732 39.3333 11.834 39.3333H30.1673C33.384 39.3333 36.0007 36.7167 36.0007 33.5V24.9267Z" fill="#008E7C" stroke="#008E7C" stroke-width="0.2"/>
</svg>
