<svg width="32" height="20" viewBox="0 0 32 20" fill="none" xmlns="http://www.w3.org/2000/svg">
<g id="Item &#226;&#134;&#146; Img">
<path id="Vector" opacity="0.07" d="M28.5051 0.220703H3.17454C1.82886 0.220703 0.799805 1.24969 0.799805 2.59529V16.8428C0.799805 18.1884 1.90802 19.2174 3.17454 19.2174H28.5051C29.8508 19.2174 30.8798 18.1884 30.8798 16.8428V2.59529C30.8798 1.24969 29.7716 0.220703 28.5051 0.220703Z" fill="black"/>
<path id="Vector_2" d="M28.505 1.01172C29.3757 1.01172 30.0882 1.72409 30.0882 2.59478V16.8423C30.0882 17.713 29.3757 18.4254 28.505 18.4254H3.17447C2.30373 18.4254 1.59131 17.713 1.59131 16.8423V2.59478C1.59131 1.72409 2.30373 1.01172 3.17447 1.01172H28.505Z" fill="white"/>
<path id="Vector_3" d="M15.1218 9.69996V12.2328H14.316V5.97977H16.446C16.7013 5.97545 16.9548 6.02162 17.1921 6.11562C17.4294 6.20962 17.6458 6.3496 17.8288 6.52751C18.0022 6.68929 18.142 6.88366 18.2402 7.0995C18.3384 7.31533 18.3931 7.54841 18.4012 7.78541C18.4093 8.0224 18.3706 8.25867 18.2873 8.4807C18.2041 8.70273 18.0779 8.90617 17.9159 9.0794L17.8288 9.17121C17.4568 9.52503 16.9597 9.71737 16.446 9.7047L15.1218 9.69996ZM15.1218 6.74597V8.95275H16.4658C16.7642 8.96225 17.0524 8.8459 17.2613 8.63297C17.4108 8.47718 17.5112 8.28087 17.5499 8.06848C17.5887 7.85609 17.5642 7.63699 17.4794 7.43842C17.3946 7.23986 17.2534 7.0706 17.0731 6.95171C16.8929 6.83281 16.6817 6.76952 16.4658 6.76972L15.1218 6.74597ZM20.2541 7.81295C20.7686 7.7892 21.272 7.96176 21.6614 8.29816C22.0137 8.63852 22.2013 9.11343 22.1759 9.60339V12.2423H21.4089V11.636H21.3701C21.2326 11.8634 21.0381 12.051 20.8059 12.1803C20.5736 12.3095 20.3117 12.3759 20.0459 12.3729C19.6121 12.387 19.189 12.2363 18.8618 11.9511C18.7068 11.8246 18.5825 11.6645 18.4984 11.483C18.4144 11.3014 18.3727 11.1031 18.3766 10.9031C18.3674 10.7009 18.4067 10.4995 18.4911 10.3156C18.5755 10.1316 18.7026 9.97052 18.8618 9.8456C19.2523 9.56473 19.725 9.42136 20.2058 9.43796C20.615 9.42213 21.0211 9.51157 21.3852 9.69996V9.53532C21.3879 9.3992 21.3595 9.26425 21.3023 9.14069C21.2452 9.01714 21.1606 8.90821 21.0551 8.82215C20.8433 8.62954 20.5657 8.52531 20.2794 8.53087C20.0715 8.52891 19.8665 8.57999 19.6838 8.6793C19.5012 8.7786 19.3468 8.92284 19.2354 9.09839L18.527 8.65197C18.7193 8.37636 18.979 8.15457 19.2813 8.00771C19.5837 7.86084 19.9185 7.7938 20.2541 7.81295ZM19.2354 10.9221C19.2335 11.0246 19.2568 11.126 19.3033 11.2174C19.3499 11.3088 19.4181 11.3873 19.5021 11.4461C19.6786 11.5854 19.8979 11.659 20.1235 11.6542C20.4631 11.6534 20.7884 11.5197 21.0306 11.2806C21.272 11.0543 21.4089 10.7384 21.4089 10.4076C21.1042 10.191 20.734 10.0864 20.3609 10.1116C20.0713 10.1001 19.7856 10.1817 19.5457 10.3443C19.4506 10.4078 19.3726 10.4938 19.3185 10.5945C19.2645 10.6953 19.2359 10.8077 19.2354 10.9221ZM26.5855 7.95384L23.9022 14.1199H23.0727L24.0867 11.9606L22.3263 7.95384H23.1994L24.4753 11.0289L25.7172 7.95384H26.5855Z" fill="#5F6368"/>
<path id="Vector_4" d="M11.8707 9.15203C11.8707 8.90824 11.8517 8.66445 11.8129 8.42383H8.41724V9.80663H10.3573C10.3178 10.0264 10.2343 10.2359 10.1119 10.4227C9.9895 10.6094 9.83066 10.7695 9.6449 10.8934V11.791H10.8037C11.156 11.4501 11.433 11.0391 11.6168 10.5846C11.8006 10.13 11.8871 9.64204 11.8707 9.15203Z" fill="#4285F4"/>
<path id="Vector_5" d="M8.42175 12.6644C9.29744 12.6884 10.1494 12.3779 10.8043 11.7961L9.64387 10.8937C9.36506 11.0725 9.04915 11.1853 8.72018 11.2236C8.3912 11.2619 8.05781 11.2247 7.74538 11.1148C7.43294 11.005 7.14968 10.8253 6.91713 10.5894C6.68458 10.3536 6.50886 10.0679 6.40335 9.75391H5.21448V10.68C5.51197 11.276 5.96963 11.7774 6.53614 12.1279C7.10264 12.4784 7.75559 12.6642 8.42175 12.6644Z" fill="#34A853"/>
<path id="Vector_6" d="M6.40328 9.75838C6.25272 9.31299 6.25272 8.83046 6.40328 8.38507V7.45898H5.2144C4.96094 7.9588 4.82886 8.51132 4.82886 9.07172C4.82886 9.63213 4.96094 10.1846 5.2144 10.6845L6.40328 9.75838Z" fill="#FBBC04"/>
<path id="Vector_7" d="M8.42175 6.9006C8.93388 6.89125 9.42894 7.08472 9.79901 7.43884L10.828 6.4154C10.1719 5.7996 9.30165 5.46371 8.40196 5.47902C7.73975 5.48234 7.09138 5.66899 6.52876 6.01827C5.96613 6.36755 5.51123 6.86582 5.21448 7.45784L6.40335 8.38472C6.54236 7.95736 6.81185 7.58433 7.17391 7.31811C7.53597 7.05189 7.97238 6.90587 8.42175 6.9006Z" fill="#EA4335"/>
</g>
</svg>
