<svg width="32" height="20" viewBox="0 0 32 20" fill="none" xmlns="http://www.w3.org/2000/svg">
<g id="Item &#226;&#134;&#146; Img">
<path id="Vector" opacity="0.07" d="M28.4999 0.220703H3.16941C1.82373 0.220703 0.794678 1.24969 0.794678 2.59529V16.8428C0.794678 18.1884 1.90289 19.2174 3.16941 19.2174H28.4999C29.8456 19.2174 30.8747 18.1884 30.8747 16.8428V2.59529C30.8747 1.24969 29.7665 0.220703 28.4999 0.220703Z" fill="#00392C"/>
<path id="Vector_2" d="M28.4999 1.01172C29.3706 1.01172 30.083 1.72409 30.083 2.59478V16.8423C30.083 17.713 29.3706 18.4254 28.4999 18.4254H3.16934C2.2986 18.4254 1.58618 17.713 1.58618 16.8423V2.59478C1.58618 1.72409 2.2986 1.01172 3.16934 1.01172H28.4999Z" fill="white"/>
<path id="Vector_3" d="M12.668 15.2591C15.7281 15.2591 18.2087 12.7785 18.2087 9.71844C18.2087 6.65839 15.7281 4.17773 12.668 4.17773C9.60798 4.17773 7.12732 6.65839 7.12732 9.71844C7.12732 12.7785 9.60798 15.2591 12.668 15.2591Z" fill="#EB001B"/>
<path id="Vector_4" d="M19.0007 15.2591C22.0607 15.2591 24.5414 12.7785 24.5414 9.71844C24.5414 6.65839 22.0607 4.17773 19.0007 4.17773C15.9406 4.17773 13.46 6.65839 13.46 9.71844C13.46 12.7785 15.9406 15.2591 19.0007 15.2591Z" fill="#F79E1B"/>
<path id="Vector_5" d="M18.2091 9.71875C18.2091 7.81908 17.2593 6.15687 15.8345 5.20703C14.4098 6.23602 13.46 7.89823 13.46 9.71875C13.46 11.5393 14.4098 13.2806 15.8345 14.2305C17.2593 13.2806 18.2091 11.6184 18.2091 9.71875Z" fill="#FF5F00"/>
</g>
</svg>
