<svg width="32" height="20" viewBox="0 0 32 20" fill="none" xmlns="http://www.w3.org/2000/svg">
<g id="Item &#226;&#134;&#146; Img">
<path id="Vector" opacity="0.07" d="M28.4797 0.220703H3.14915C1.80347 0.220703 0.774414 1.24969 0.774414 2.59529V16.8428C0.774414 18.1884 1.88262 19.2174 3.14915 19.2174H28.4797C29.8254 19.2174 30.8544 18.1884 30.8544 16.8428V2.59529C30.8544 1.24969 29.7462 0.220703 28.4797 0.220703Z" fill="#00392C"/>
<path id="Vector_2" d="M28.4796 1.01172C29.3503 1.01172 30.0628 1.72409 30.0628 2.59478V16.8423C30.0628 17.713 29.3503 18.4254 28.4796 18.4254H3.14908C2.27834 18.4254 1.56592 17.713 1.56592 16.8423V2.59478C1.56592 1.72409 2.27834 1.01172 3.14908 1.01172H28.4796Z" fill="white"/>
<path id="Vector_3" d="M23.176 8.21495H22.9385C22.6219 9.00647 22.3844 9.40224 22.1469 10.5895H23.6509C23.4134 9.40224 23.4134 8.84817 23.176 8.21495ZM25.4715 12.885H24.1259C24.0467 12.885 24.0467 12.885 23.9675 12.8058L23.8092 12.0934L23.7301 11.9351H21.8303C21.7511 11.9351 21.672 11.9351 21.672 12.0934L21.4345 12.8058C21.4345 12.885 21.3553 12.885 21.3553 12.885H19.693L19.8513 12.4892L22.1469 7.1068C22.1469 6.71104 22.3844 6.55273 22.7802 6.55273H23.9675C24.0467 6.55273 24.1259 6.55273 24.1259 6.71104L25.2341 11.856C25.3132 12.1726 25.3924 12.41 25.3924 12.7267C25.4715 12.8058 25.4715 12.8058 25.4715 12.885ZM14.8644 12.6475L15.181 11.2228C15.2602 11.2228 15.3393 11.3019 15.3393 11.3019C15.8934 11.5394 16.4475 11.6977 17.0017 11.6185C17.16 11.6185 17.3974 11.5394 17.5558 11.4602C17.9515 11.3019 17.9515 10.9061 17.6349 10.5895C17.4766 10.4312 17.2391 10.3521 17.0017 10.1938C16.685 10.0355 16.3684 9.87716 16.1309 9.6397C15.181 8.84817 15.4977 7.74003 16.0518 7.18596C16.5267 6.86935 16.7642 6.55273 17.3974 6.55273C18.3473 6.55273 19.3764 6.55273 19.8513 6.71104H19.9305C19.8513 7.18596 19.7722 7.58172 19.6139 8.05664C19.2181 7.89833 18.8223 7.74003 18.4265 7.74003C18.189 7.74003 17.9515 7.74003 17.7141 7.81918C17.5558 7.81918 17.4766 7.89833 17.3974 7.97749C17.2391 8.13579 17.2391 8.37325 17.3974 8.53156L17.7932 8.84817C18.1099 9.00647 18.4265 9.16478 18.664 9.32309C19.0598 9.56054 19.4555 9.95631 19.5347 10.4312C19.693 11.1436 19.4555 11.7768 18.8223 12.2517C18.4265 12.5684 18.2682 12.7267 17.7141 12.7267C16.6059 12.7267 15.7351 12.8058 15.0227 12.5684C14.9435 12.7267 14.9435 12.7267 14.8644 12.6475ZM12.0939 12.885C12.173 12.3309 12.173 12.3309 12.2522 12.0934C12.648 10.3521 13.0438 8.53156 13.3604 6.79019C13.4395 6.63189 13.4395 6.55273 13.5979 6.55273H15.0227C14.8644 7.50257 14.7061 8.21494 14.4686 9.08563C14.2311 10.2729 13.9937 11.4602 13.677 12.6475C13.677 12.8058 13.5979 12.8058 13.4395 12.8058M4.73218 6.71104C4.73218 6.63189 4.89049 6.55273 4.96965 6.55273H7.66102C8.05681 6.55273 8.37344 6.79019 8.4526 7.18596L9.16502 10.6687C9.16502 10.7478 9.16502 10.7478 9.24418 10.827C9.24418 10.7478 9.32334 10.7478 9.32334 10.7478L10.9857 6.71104C10.9065 6.63189 10.9857 6.55273 11.0648 6.55273H12.7271C12.7271 6.63189 12.7271 6.63189 12.648 6.71104L10.1941 12.4892C10.1149 12.6475 10.1149 12.7267 10.0358 12.8058C9.9566 12.885 9.79828 12.8058 9.63997 12.8058H8.4526C8.37344 12.8058 8.29428 12.8058 8.29428 12.6475L7.02776 7.74003C6.86944 7.58172 6.63197 7.34426 6.31534 7.26511C5.84039 7.02765 4.96965 6.86935 4.81134 6.86935L4.73218 6.71104Z" fill="#142688"/>
</g>
</svg>
