<svg width="42" height="42" viewBox="0 0 42 42" fill="none" xmlns="http://www.w3.org/2000/svg">
<g clip-path="url(#clip0_324_11553)">
<path d="M41.4765 21.0001C41.4765 10.6142 33.3867 1.82617 22.453 1.82617C11.9631 1.82617 3.42944 10.4273 3.42944 21.0001C3.42944 31.5729 11.9631 40.174 22.453 40.174C33.8338 40.174 41.4765 31.1191 41.4765 21.0001ZM39.8421 22.3311L34.7961 20.2747C34.6867 20.2187 34.6058 20.1197 34.5757 19.9982L33.5817 15.9941C33.5373 15.8135 33.6198 15.6154 33.8037 15.5084L37.935 12.9151C39.1858 15.3374 39.8928 18.0872 39.8928 21.0001C39.8928 21.4475 39.8738 21.8917 39.8421 22.3311ZM22.453 3.424C22.6036 3.424 22.7558 3.4256 22.9048 3.43039C21.8854 4.80772 20.3049 6.952 20.0116 7.40898C19.3886 8.38045 19.3696 9.60439 19.9609 10.5998L21.1229 12.5524L20.0148 11.9931C18.9114 11.4355 17.5893 11.6544 16.7253 12.5316L15.8867 13.3769C15.3477 13.9185 15.0528 14.6407 15.0528 15.4077C15.0528 15.6809 15.0893 15.9494 15.1638 16.2066H12.3103C12.1375 16.2066 11.9678 16.1347 11.8442 16.0021L7.68279 11.6688C10.7694 6.72031 16.237 3.424 22.453 3.424ZM22.453 38.5762C12.8382 38.5762 5.01474 30.6909 5.01474 21.0001C5.01474 18.1687 5.68373 15.4924 6.86795 13.1196L10.698 17.1062C11.1165 17.5488 11.7031 17.8044 12.3103 17.8044H15.3984C15.8581 17.8044 16.2909 17.985 16.6175 18.3125L17.2072 18.9085C17.5195 19.2233 17.6987 19.6579 17.6987 20.1005V21.6392C17.6987 22.2608 17.9381 22.8424 18.3724 23.277L20.2573 25.1784C20.6521 25.5763 20.8693 26.1051 20.8693 26.666V30.4448C20.8693 31.4051 21.6445 32.1865 22.5972 32.1865H22.9349C23.6071 32.1865 24.2222 31.7886 24.5028 31.175L28.0554 23.4176C28.4787 22.4956 28.1537 21.3963 27.2976 20.8595L23.2361 18.2982C22.7241 17.977 22.1343 17.806 21.5303 17.806H19.2618C18.7703 17.806 18.2916 17.6063 17.946 17.2564L17.0075 16.3105C16.7697 16.0708 16.6381 15.7496 16.6381 15.4093C16.6381 15.069 16.7697 14.7478 17.0075 14.5081L17.8477 13.6613C18.2313 13.273 18.8195 13.1771 19.3062 13.4248L20.6996 14.1262C21.2767 14.4202 21.9742 14.3052 22.4197 13.845C22.9064 13.3545 22.9999 12.6003 22.6495 12.0091L21.3211 9.77855C21.0421 9.30879 21.0516 8.73357 21.3449 8.2766C21.6476 7.80524 23.718 5.00585 24.7754 3.58058C29.9609 4.27883 34.433 7.28115 37.1407 11.5314L32.9888 14.1374C32.2184 14.5848 31.83 15.5068 32.044 16.3792L33.038 20.3817C33.1791 20.9569 33.5627 21.4395 34.1461 21.7287L39.6423 23.9704C38.2377 32.252 31.0659 38.5746 22.4546 38.5746L22.453 38.5762ZM21.3766 24.0471L19.4901 22.1441C19.3569 22.0099 19.2824 21.831 19.2824 21.6376V20.0989C19.2824 19.864 19.2554 19.6291 19.2063 19.4007C19.2253 19.4007 19.2412 19.4007 19.2602 19.4007H21.5287C21.8347 19.4007 22.1359 19.4869 22.3975 19.6499L26.459 22.2112C26.6366 22.3231 26.7031 22.5516 26.616 22.7433L22.9349 30.5854H22.5972C22.5196 30.5854 22.4546 30.5199 22.4546 30.4416V26.6628C22.4546 25.6753 22.0725 24.7454 21.3781 24.0455L21.3766 24.0471Z" fill="#008E7C"/>
</g>
<defs>
<clipPath id="clip0_324_11553">
<rect width="40.7647" height="42" fill="white" transform="translate(0.617676)"/>
</clipPath>
</defs>
</svg>
