<svg width="40" height="40" viewBox="0 0 40 40" fill="none" xmlns="http://www.w3.org/2000/svg">
<g id="united arab emirates" clip-path="url(#clip0_2_523)">
<path id="Vector" d="M20.0002 40.0001C31.0459 40.0001 40.0003 31.0458 40.0003 20.0001C40.0003 8.95443 31.0459 0.00012207 20.0002 0.00012207C8.95455 0.00012207 0.000244141 8.95443 0.000244141 20.0001C0.000244141 31.0458 8.95455 40.0001 20.0002 40.0001Z" fill="#F0F0F0"/>
<path id="Vector_2" d="M11.3047 26.9561L13.0438 38.7557C15.2104 39.5597 17.5539 39.9996 20.0003 39.9996C28.5995 39.9996 35.9305 34.5721 38.7562 26.9561H11.3047Z" fill="black"/>
<path id="Vector_3" d="M11.3047 13.0436L13.0438 1.24389C15.2104 0.439905 17.5539 6.10352e-05 20.0003 6.10352e-05C28.5995 6.10352e-05 35.9305 5.42756 38.7562 13.0436H11.3047Z" fill="#6DA544"/>
<path id="Vector_4" d="M0 20C0 28.5993 5.42758 35.9302 13.0435 38.7561V1.24402C5.42758 4.06988 0 11.4007 0 20Z" fill="#A2001D"/>
</g>
<defs>
<clipPath id="clip0_2_523">
<rect width="40" height="40" fill="white"/>
</clipPath>
</defs>
</svg>
