<svg width="38" height="43" viewBox="0 0 38 43" fill="none" xmlns="http://www.w3.org/2000/svg">
<path d="M32.1632 8.29375L27.9562 4.08683C26.6104 2.741 24.8228 2 22.9181 2H12.875C8.94675 2 5.75 5.19675 5.75 9.125V32.875C5.75 36.8032 8.94675 40 12.875 40H27.125C31.0533 40 34.25 36.8032 34.25 32.875V13.3319C34.25 11.4288 33.509 9.63958 32.1632 8.29375ZM32.6667 32.875C32.6667 35.9308 30.1808 38.4167 27.125 38.4167H12.875C9.81917 38.4167 7.33333 35.9308 7.33333 32.875V9.125C7.33333 6.06917 9.81917 3.58333 12.875 3.58333H22.9181C24.3985 3.58333 25.7887 4.15967 26.8368 5.20625L31.0438 9.41317C32.0903 10.4598 32.6667 11.8515 32.6667 13.3319V32.875ZM25.5417 21H14.4583C12.2765 21 10.5 22.7765 10.5 24.9583V31.2917C10.5 33.4735 12.2765 35.25 14.4583 35.25H25.5417C27.7235 35.25 29.5 33.4735 29.5 31.2917V24.9583C29.5 22.7765 27.7235 21 25.5417 21ZM27.9167 24.9583V27.3333H18.4167V22.5833H25.5417C26.8511 22.5833 27.9167 23.6489 27.9167 24.9583ZM14.4583 22.5833H16.8333V27.3333H12.0833V24.9583C12.0833 23.6489 13.1489 22.5833 14.4583 22.5833ZM12.0833 31.2917V28.9167H21.5833V33.6667H14.4583C13.1489 33.6667 12.0833 32.6011 12.0833 31.2917ZM25.5417 33.6667H23.1667V28.9167H27.9167V31.2917C27.9167 32.6011 26.8511 33.6667 25.5417 33.6667Z" fill="#008E7C" stroke="#008E7C" stroke-width="0.2"/>
</svg>
